<?xml version="1.0" encoding="UTF-8" standalone="no"?>
<svg
   width="73"
   height="73"
   version="1.1"
   id="svg23"
   sodipodi:docname="icon.svg"
   inkscape:version="1.1.2 (0a00cf5339, 2022-02-04, custom)"
   xmlns:inkscape="http://www.inkscape.org/namespaces/inkscape"
   xmlns:sodipodi="http://sodipodi.sourceforge.net/DTD/sodipodi-0.dtd"
   xmlns:xlink="http://www.w3.org/1999/xlink"
   xmlns="http://www.w3.org/2000/svg"
   xmlns:svg="http://www.w3.org/2000/svg">
  <defs
     id="defs27">
    <linearGradient
       xlink:href="#A"
       id="C"
       x1="41.464001"
       y1="29.159"
       x2="39.349998"
       y2="31.273001" />
    <linearGradient
       id="A"
       gradientUnits="userSpaceOnUse">
      <stop
         offset=".18"
         stop-color="#0052cc"
         id="stop210" />
      <stop
         offset="1"
         stop-color="#2684ff"
         id="stop212" />
    </linearGradient>
    <linearGradient
       id="B"
       x1="42.022999"
       y1="35.231998"
       x2="44.132999"
       y2="33.122002"
       xlink:href="#A" />
    <linearGradient
       xlink:href="#A"
       id="C-9"
       x1="41.464001"
       y1="29.159"
       x2="39.349998"
       y2="31.273001"
       gradientTransform="matrix(4.101162,0,0,4.101162,-119.96345,-105.37587)" />
    <linearGradient
       id="B-5"
       x1="42.022999"
       y1="35.231998"
       x2="44.132999"
       y2="33.122002"
       xlink:href="#A"
       gradientTransform="matrix(4.101162,0,0,4.101162,-119.96345,-105.37587)" />
  </defs>
  <sodipodi:namedview
     id="namedview25"
     pagecolor="#ffffff"
     bordercolor="#666666"
     borderopacity="1.0"
     inkscape:pageshadow="2"
     inkscape:pageopacity="0.0"
     inkscape:pagecheckerboard="0"
     showgrid="false"
     inkscape:zoom="7.2216754"
     inkscape:cx="47.426668"
     inkscape:cy="33.233285"
     inkscape:window-width="1920"
     inkscape:window-height="1017"
     inkscape:window-x="-8"
     inkscape:window-y="-8"
     inkscape:window-maximized="1"
     inkscape:current-layer="layer3"
     width="75px"
     height="73px" />
  <g
     inkscape:groupmode="layer"
     id="layer1"
     inkscape:label="jira"
     style="display:inline">
    <g
       id="g139" />
    <g
       id="g133"
       transform="translate(0,4)"
       style="display:inline">
      <g
         id="g136">
        <g
           id="g142">
          <path
             d="M 71.019462,21.525019 51.194445,1.7000016 C 46.23819,6.6562556 41.281936,11.61251 36.325682,16.568764 v 12.262475 c 4.956254,4.956254 9.912509,9.912509 14.868763,14.868763 L 71.019462,23.874985 c 0.647057,-0.649698 0.647057,-1.700268 0,-2.349966 z m -19.825017,7.382091 -6.209159,-6.209159 6.209159,-6.209159 6.209159,6.209159 z"
             fill="#2684ff"
             id="path219"
             style="stroke-width:4.10116"
             sodipodi:nodetypes="cccccccccccc" />
        </g>
      </g>
    </g>
  </g>
  <g
     inkscape:groupmode="layer"
     id="layer2"
     inkscape:label="git"
     style="display:inline">
    <path
       d="M 51.194445,20.529803 A 10.453862,10.453862 0 0 1 51.149332,5.7902272 l -13.628161,13.5420368 7.394395,7.394395 z"
       fill="url(#C)"
       id="path221"
       style="display:inline;fill:url(#C-9);stroke-width:4.10116" />
    <path
       d="m 57.420009,26.681546 -6.225564,6.225564 a 10.453862,10.453862 0 0 1 0,14.78879 L 64.810303,34.080043 Z"
       fill="url(#B)"
       id="path223"
       style="fill:url(#B-5);stroke-width:4.10116" />
    <path
       d="M 42.910137,24.831587 24.568596,6.492026 c -1.055044,-1.056034 -2.768254,-1.056034 -3.825278,0 l -3.807463,3.808452 4.829847,4.829847 c 1.123335,-0.379064 2.409974,-0.123715 3.302704,0.769015 a 3.2165987,3.2165987 0 0 1 0.763076,3.325468 l 4.655656,4.655655 c 1.113438,-0.387971 2.42482,-0.135592 3.325468,0.762087 a 3.2165987,3.2165987 0 0 1 -1.444005,5.385081 3.2165987,3.2165987 0 0 1 -3.108719,-0.833347 c -0.945185,-0.946175 -1.17777,-2.335745 -0.699734,-3.500649 l -4.330037,-4.330037 v 11.426349 c 0.296917,0.152417 0.595813,0.353331 0.851162,0.608679 1.256947,1.256948 1.256947,3.293797 0,4.552724 a 3.2165987,3.2165987 0 0 1 -4.551735,0 c -1.256948,-1.259917 -1.256948,-3.295776 0,-4.552724 a 3.2363931,3.2363931 0 0 1 1.054055,-0.702703 V 21.165654 C 21.212447,21.007298 20.841301,20.775703 20.529538,20.472848 A 3.2165987,3.2165987 0 0 1 19.836732,16.954384 L 15.074187,12.190849 2.4898631,24.745481 a 2.7118401,2.7118401 0 0 0 0,3.826268 L 20.832393,46.91131 c 1.055045,1.056034 2.768255,1.056034 3.825278,0 L 42.910137,28.657854 a 2.7118401,2.7118401 0 0 0 0,-3.826267"
       fill="#f03c2e"
       id="path21"
       style="stroke-width:0.989723" />
  </g>
  <g
     inkscape:groupmode="layer"
     id="layer3"
     inkscape:label="environment_variable"
     style="display:inline">
    <path
       d="m 11.902364,65.28114 c -0.982816,-0.117679 -1.87931,-0.752285 -2.3158224,-1.639313 -0.35222,-0.715739 -0.333858,-0.200205 -0.333858,-9.373502 0,-7.093238 0.01079,-8.337154 0.07494,-8.642707 0.235004,-1.119322 1.1407974,-2.048428 2.2688054,-2.327198 0.416819,-0.10301 20.998741,-0.10301 21.415561,0 1.128006,0.27877 2.0338,1.207876 2.268805,2.327198 0.112533,0.53599 0.112533,16.749425 0,17.285416 -0.227517,1.083657 -1.054287,1.96324 -2.169139,2.307699 -0.256555,0.07927 -1.077085,0.08656 -10.577994,0.09401 -5.664926,0.0044 -10.44901,-0.0098 -10.631297,-0.0316 z m 20.997619,-2.153459 c 0.116583,-0.07715 0.264049,-0.237769 0.327703,-0.356925 l 0.115733,-0.216649 0.01361,-7.151266 0.01361,-7.151268 H 22.304208 11.237774 l 0.01361,7.151268 0.01361,7.151266 0.113571,0.212411 c 0.113228,0.211767 0.303432,0.38098 0.531199,0.472575 0.07446,0.02995 4.043067,0.04461 10.44916,0.03858 l 10.329086,-0.0097 z M 15.658425,59.736942 c -0.858043,-1.42695 -1.157392,-2.303456 -1.252315,-3.666813 -0.117101,-1.681904 0.262333,-3.219756 1.133347,-4.593475 l 0.137404,-0.216705 h 0.585738 c 0.322156,0 0.58574,0.01133 0.58574,0.02517 0,0.01385 -0.104086,0.256765 -0.231302,0.539821 -0.451091,1.003683 -0.641332,1.751304 -0.740646,2.910649 -0.06226,0.72675 -0.03547,1.494415 0.07991,2.289785 0.122797,0.846526 0.328693,1.45433 0.892643,2.635078 l 0.298331,0.624622 h -0.579624 -0.579625 z m 11.795715,0.521032 c 0,-0.01491 0.157274,-0.364821 0.349499,-0.777589 0.712793,-1.530588 0.862393,-2.136393 0.90935,-3.682377 0.04849,-1.596087 -0.224515,-2.940205 -0.848021,-4.175364 -0.08573,-0.169839 -0.15588,-0.320924 -0.15588,-0.335745 0,-0.01482 0.270319,-0.02694 0.600707,-0.02694 h 0.600709 l 0.26816,0.452961 c 0.492408,0.831751 0.822055,1.798518 0.952461,2.793321 0.155594,1.186929 0.03586,2.398899 -0.344228,3.484322 -0.184909,0.528045 -0.294796,0.751566 -0.795539,1.618201 l -0.389956,0.674896 -0.57363,6.85e-4 c -0.315498,3.91e-4 -0.573632,-0.01149 -0.573632,-0.02639 z m -8.558822,-1.146071 c -0.392825,-0.167637 -0.61615,-0.501359 -0.618156,-0.923728 -0.0024,-0.488271 0.265423,-0.924823 0.687239,-1.120538 0.285774,-0.132594 0.8805,-0.1287 1.325272,0.0087 0.187946,0.05805 0.37176,0.09402 0.408475,0.07993 0.03672,-0.01409 0.215004,-0.209233 0.396199,-0.433654 l 0.329445,-0.408039 -0.193008,-0.717334 c -0.377791,-1.404099 -0.572435,-1.874732 -0.858106,-2.074825 -0.250986,-0.175797 -0.892101,-0.171076 -1.350426,0.0099 -0.07681,0.03034 -0.08966,0.01891 -0.06677,-0.05938 0.01559,-0.05332 0.05205,-0.188928 0.08102,-0.301352 0.05015,-0.194577 0.07052,-0.211144 0.423698,-0.344478 0.618888,-0.233647 1.151339,-0.348637 1.628593,-0.351712 0.620682,-0.0041 0.908548,0.100932 1.269084,0.462605 0.248393,0.249175 0.301263,0.339536 0.420355,0.718434 0.07492,0.238376 0.163476,0.553873 0.196783,0.701105 0.03331,0.147232 0.07383,0.267398 0.09004,0.267036 0.01621,-3.58e-4 0.14402,-0.178188 0.284006,-0.395169 0.751727,-1.165177 1.161572,-1.620389 1.590476,-1.766531 0.765616,-0.260872 1.394621,0.15667 1.391711,0.923833 -6.83e-4,0.174727 -0.03903,0.378466 -0.094,0.499178 -0.119451,0.26228 -0.455455,0.564578 -0.704346,0.633691 -0.303336,0.08423 -0.772978,0.06458 -1.184969,-0.04959 l -0.376228,-0.104258 -0.150713,0.1425 c -0.247579,0.234088 -0.598971,0.714146 -0.598971,0.818293 0,0.05344 0.07833,0.38215 0.174068,0.730472 0.419411,1.525956 0.61218,1.961471 0.936256,2.115255 0.217687,0.1033 0.724603,0.104376 1.054348,0.0023 0.138912,-0.04303 0.2628,-0.068 0.275307,-0.05549 0.01251,0.01251 -0.0094,0.140172 -0.04861,0.283701 -0.06901,0.252381 -0.08141,0.265083 -0.377287,0.386392 -1.532725,0.628408 -2.810952,0.459426 -3.245199,-0.429014 -0.06507,-0.133135 -0.189274,-0.516282 -0.276003,-0.851438 l -0.157689,-0.609374 -0.452,0.681582 c -0.509487,0.768267 -0.964566,1.284633 -1.269069,1.439979 -0.232729,0.118729 -0.757068,0.169481 -0.940822,0.09107 z"
       style="display:inline;fill:#000000;stroke-width:0.0509895"
       id="path129" />
  </g>
</svg>
