<?xml version="1.0" encoding="UTF-8" standalone="no"?>
<svg
   width="73"
   height="73"
   version="1.1"
   id="svg23"
   sodipodi:docname="extension-icon.svg"
   inkscape:version="1.1.2 (0a00cf5339, 2022-02-04, custom)"
   xmlns:inkscape="http://www.inkscape.org/namespaces/inkscape"
   xmlns:sodipodi="http://sodipodi.sourceforge.net/DTD/sodipodi-0.dtd"
   xmlns:xlink="http://www.w3.org/1999/xlink"
   xmlns="http://www.w3.org/2000/svg"
   xmlns:svg="http://www.w3.org/2000/svg">
  <defs
     id="defs27">
    <linearGradient
       xlink:href="#A"
       id="C"
       x1="41.464001"
       y1="29.159"
       x2="39.349998"
       y2="31.273001" />
    <linearGradient
       id="A"
       gradientUnits="userSpaceOnUse">
      <stop
         offset=".18"
         stop-color="#0052cc"
         id="stop210" />
      <stop
         offset="1"
         stop-color="#2684ff"
         id="stop212" />
    </linearGradient>
    <linearGradient
       id="B"
       x1="42.022999"
       y1="35.231998"
       x2="44.132999"
       y2="33.122002"
       xlink:href="#A" />
    <linearGradient
       xlink:href="#A"
       id="C-9"
       x1="41.464001"
       y1="29.159"
       x2="39.349998"
       y2="31.273001"
       gradientTransform="matrix(4.101162,0,0,4.101162,-119.96345,-109.37587)" />
    <linearGradient
       id="B-5"
       x1="42.022999"
       y1="35.231998"
       x2="44.132999"
       y2="33.122002"
       xlink:href="#A"
       gradientTransform="matrix(4.101162,0,0,4.101162,-119.96345,-109.37587)" />
  </defs>
  <sodipodi:namedview
     id="namedview25"
     pagecolor="#ffffff"
     bordercolor="#666666"
     borderopacity="1.0"
     inkscape:pageshadow="2"
     inkscape:pageopacity="0.0"
     inkscape:pagecheckerboard="0"
     showgrid="false"
     inkscape:zoom="7.2216754"
     inkscape:cx="47.21896"
     inkscape:cy="33.233286"
     inkscape:window-width="1920"
     inkscape:window-height="1017"
     inkscape:window-x="-8"
     inkscape:window-y="-8"
     inkscape:window-maximized="1"
     inkscape:current-layer="layer2"
     width="75px"
     height="73px" />
  <g
     inkscape:groupmode="layer"
     id="layer1"
     inkscape:label="jira"
     style="display:inline">
    <g
       id="g139" />
    <g
       id="g151"
       transform="translate(0,14)">
      <g
         id="g133">
        <g
           id="g136">
          <g
             id="g142">
            <path
               d="M 71.019462,21.525019 51.194445,1.7000016 C 46.23819,6.6562556 41.281936,11.61251 36.325682,16.568764 v 12.262475 c 4.956254,4.956254 9.912509,9.912509 14.868763,14.868763 L 71.019462,23.874985 c 0.647057,-0.649698 0.647057,-1.700268 0,-2.349966 z m -19.825017,7.382091 -6.209159,-6.209159 6.209159,-6.209159 6.209159,6.209159 z"
               fill="#2684ff"
               id="path219"
               style="stroke-width:4.10116"
               sodipodi:nodetypes="cccccccccccc" />
          </g>
        </g>
      </g>
      <path
         d="M 51.194445,16.529803 A 10.453862,10.453862 0 0 1 51.149332,1.7902272 l -13.628161,13.5420368 7.394395,7.394395 z"
         fill="url(#C)"
         id="path221"
         style="display:inline;fill:url(#C-9);stroke-width:4.10116" />
      <path
         d="m 57.420009,22.681546 -6.225564,6.225564 a 10.453862,10.453862 0 0 1 0,14.78879 L 64.810303,30.080043 Z"
         fill="url(#B)"
         id="path223"
         style="fill:url(#B-5);stroke-width:4.10116" />
    </g>
  </g>
  <g
     inkscape:groupmode="layer"
     id="layer2"
     inkscape:label="git"
     style="display:inline">
    <path
       d="M 42.910137,34.831587 24.568596,16.492026 c -1.055044,-1.056034 -2.768254,-1.056034 -3.825278,0 l -3.807463,3.808452 4.829847,4.829847 c 1.123335,-0.379064 2.409974,-0.123715 3.302704,0.769015 a 3.2165987,3.2165987 0 0 1 0.763076,3.325468 l 4.655656,4.655655 c 1.113438,-0.387971 2.42482,-0.135592 3.325468,0.762087 a 3.2165987,3.2165987 0 0 1 -1.444005,5.385081 3.2165987,3.2165987 0 0 1 -3.108719,-0.833347 c -0.945185,-0.946175 -1.17777,-2.335745 -0.699734,-3.500649 l -4.330037,-4.330037 v 11.426349 c 0.296917,0.152417 0.595813,0.353331 0.851162,0.608679 1.256947,1.256948 1.256947,3.293797 0,4.552724 a 3.2165987,3.2165987 0 0 1 -4.551735,0 c -1.256948,-1.259917 -1.256948,-3.295776 0,-4.552724 a 3.2363931,3.2363931 0 0 1 1.054055,-0.702703 V 31.165654 C 21.212447,31.007298 20.841301,30.775703 20.529538,30.472848 A 3.2165987,3.2165987 0 0 1 19.836732,26.954384 L 15.074187,22.190849 2.4898631,34.745481 a 2.7118401,2.7118401 0 0 0 0,3.826268 L 20.832393,56.91131 c 1.055045,1.056034 2.768255,1.056034 3.825278,0 L 42.910137,38.657854 a 2.7118401,2.7118401 0 0 0 0,-3.826267"
       fill="#f03c2e"
       id="path21"
       style="stroke-width:0.989723" />
  </g>
</svg>
